<svg style="display:none" xmlns="http://www.w3.org/2000/svg" xmlns:xlink="http://www.w3.org/1999/xlink" version="1.1">
	<symbol id="shopping_bag" xmlns="http://www.w3.org/2000/svg" viewBox="0 -960 960 960" fill="currentColor"><path d="M240-80q-33 0-56.5-23.5T160-160v-480q0-33 23.5-56.5T240-720h80q0-66 47-113t113-47q66 0 113 47t47 113h80q33 0 56.5 23.5T800-640v480q0 33-23.5 56.5T720-80H240Zm0-80h480v-480h-80v80q0 17-11.5 28.5T600-520q-17 0-28.5-11.5T560-560v-80H400v80q0 17-11.5 28.5T360-520q-17 0-28.5-11.5T320-560v-80h-80v480Zm160-560h160q0-33-23.5-56.5T480-800q-33 0-56.5 23.5T400-720ZM240-160v-480 480Z"/></symbol>
	<symbol id="account_circle" xmlns="http://www.w3.org/2000/svg" viewBox="0 -960 960 960" fill="currentColor"><path d="M234-276q51-39 114-61.5T480-360q69 0 132 22.5T726-276q35-41 54.5-93T800-480q0-133-93.5-226.5T480-800q-133 0-226.5 93.5T160-480q0 59 19.5 111t54.5 93Zm246-164q-59 0-99.5-40.5T340-580q0-59 40.5-99.5T480-720q59 0 99.5 40.5T620-580q0 59-40.5 99.5T480-440Zm0 360q-83 0-156-31.5T197-197q-54-54-85.5-127T80-480q0-83 31.5-156T197-763q54-54 127-85.5T480-880q83 0 156 31.5T763-763q54 54 85.5 127T880-480q0 83-31.5 156T763-197q-54 54-127 85.5T480-80Zm0-80q53 0 100-15.5t86-44.5q-39-29-86-44.5T480-280q-53 0-100 15.5T294-220q39 29 86 44.5T480-160Zm0-360q26 0 43-17t17-43q0-26-17-43t-43-17q-26 0-43 17t-17 43q0 26 17 43t43 17Zm0-60Zm0 360Z"/></symbol>
	<symbol id="chevron-right" xmlns="http://www.w3.org/2000/svg" fill="currentColor" viewBox="0 0 256 256"><path d="M181.66,133.66l-80,80a8,8,0,0,1-11.32-11.32L164.69,128,90.34,53.66a8,8,0,0,1,11.32-11.32l80,80A8,8,0,0,1,181.66,133.66Z"></path></symbol>
	<symbol id="favorite" xmlns="http://www.w3.org/2000/svg" viewBox="0 -960 960 960" fill="currentColor"><path d="m480-120-58-52q-101-91-167-157T150-447.5Q111-500 95.5-544T80-634q0-94 63-157t157-63q52 0 99 22t81 62q34-40 81-62t99-22q94 0 157 63t63 157q0 46-15.5 90T810-447.5Q771-395 705-329T538-172l-58 52Zm0-108q96-86 158-147.5t98-107q36-45.5 50-81t14-70.5q0-60-40-100t-100-40q-47 0-87 26.5T518-680h-76q-15-41-55-67.5T300-774q-60 0-100 40t-40 100q0 35 14 70.5t50 81q36 45.5 98 107T480-228Zm0-273Z"/></symbol>
	<symbol id="home_pin" xmlns="http://www.w3.org/2000/svg" viewBox="0 -960 960 960" fill="currentColor"><path d="M360-440h80v-110h80v110h80v-190l-120-80-120 80v190Zm120 254q122-112 181-203.5T720-552q0-109-69.5-178.5T480-800q-101 0-170.5 69.5T240-552q0 71 59 162.5T480-186Zm0 106Q319-217 239.5-334.5T160-552q0-150 96.5-239T480-880q127 0 223.5 89T800-552q0 100-79.5 217.5T480-80Zm0-480Z"/></symbol>
	<symbol id="call" xmlns="http://www.w3.org/2000/svg" viewBox="0 -960 960 960" fill="currentColor"><path d="M798-120q-125 0-247-54.5T329-329Q229-429 174.5-551T120-798q0-18 12-30t30-12h162q14 0 25 9.5t13 22.5l26 140q2 16-1 27t-11 19l-97 98q20 37 47.5 71.5T387-386q31 31 65 57.5t72 48.5l94-94q9-9 23.5-13.5T670-390l138 28q14 4 23 14.5t9 23.5v162q0 18-12 30t-30 12ZM241-600l66-66-17-94h-89q5 41 14 81t26 79Zm358 358q39 17 79.5 27t81.5 13v-88l-94-19-67 67ZM241-600Zm358 358Z"/></symbol>
	<symbol id="local_shipping" xmlns="http://www.w3.org/2000/svg" viewBox="0 -960 960 960" fill="currentColor"><path d="M240-160q-50 0-85-35t-35-85H40v-440q0-33 23.5-56.5T120-800h560v160h120l120 160v200h-80q0 50-35 85t-85 35q-50 0-85-35t-35-85H360q0 50-35 85t-85 35Zm0-80q17 0 28.5-11.5T280-280q0-17-11.5-28.5T240-320q-17 0-28.5 11.5T200-280q0 17 11.5 28.5T240-240ZM120-360h32q17-18 39-29t49-11q27 0 49 11t39 29h272v-360H120v360Zm600 120q17 0 28.5-11.5T760-280q0-17-11.5-28.5T720-320q-17 0-28.5 11.5T680-280q0 17 11.5 28.5T720-240Zm-40-200h170l-90-120h-80v120ZM360-540Z"/></symbol>
	<symbol id="pan_zoom" xmlns="http://www.w3.org/2000/svg" viewBox="0 -960 960 960" fill="currentColor"><path d="M120-120v-240h80v104l124-124 56 56-124 124h104v80H120Zm516-460-56-56 124-124H600v-80h240v240h-80v-104L636-580Z"/></symbol>
	<symbol id="share" xmlns="http://www.w3.org/2000/svg" viewBox="0 -960 960 960" fill="currentColor"><path d="M720-80q-50 0-85-35t-35-85q0-7 1-14.5t3-13.5L322-392q-17 15-38 23.5t-44 8.5q-50 0-85-35t-35-85q0-50 35-85t85-35q23 0 44 8.5t38 23.5l282-164q-2-6-3-13.5t-1-14.5q0-50 35-85t85-35q50 0 85 35t35 85q0 50-35 85t-85 35q-23 0-44-8.5T638-672L356-508q2 6 3 13.5t1 14.5q0 7-1 14.5t-3 13.5l282 164q17-15 38-23.5t44-8.5q50 0 85 35t35 85q0 50-35 85t-85 35Zm0-640q17 0 28.5-11.5T760-760q0-17-11.5-28.5T720-800q-17 0-28.5 11.5T680-760q0 17 11.5 28.5T720-720ZM240-440q17 0 28.5-11.5T280-480q0-17-11.5-28.5T240-520q-17 0-28.5 11.5T200-480q0 17 11.5 28.5T240-440Zm480 280q17 0 28.5-11.5T760-200q0-17-11.5-28.5T720-240q-17 0-28.5 11.5T680-200q0 17 11.5 28.5T720-160Zm0-600ZM240-480Zm480 280Z"/></symbol>
	<symbol id="sell" xmlns="http://www.w3.org/2000/svg" viewBox="0 -960 960 960" fill="currentColor"><path d="M856-390 570-104q-12 12-27 18t-30 6q-15 0-30-6t-27-18L103-457q-11-11-17-25.5T80-513v-287q0-33 23.5-56.5T160-880h287q16 0 31 6.5t26 17.5l352 353q12 12 17.5 27t5.5 30q0 15-5.5 29.5T856-390ZM513-160l286-286-353-354H160v286l353 354ZM260-640q25 0 42.5-17.5T320-700q0-25-17.5-42.5T260-760q-25 0-42.5 17.5T200-700q0 25 17.5 42.5T260-640Zm220 160Z"/></symbol>
	<symbol id="check-circle" xmlns="http://www.w3.org/2000/svg" viewBox="0 -960 960 960" fill="currentColor"><path d="m424-296 282-282-56-56-226 226-114-114-56 56 170 170Zm56 216q-83 0-156-31.5T197-197q-54-54-85.5-127T80-480q0-83 31.5-156T197-763q54-54 127-85.5T480-880q83 0 156 31.5T763-763q54 54 85.5 127T880-480q0 83-31.5 156T763-197q-54 54-127 85.5T480-80Zm0-80q134 0 227-93t93-227q0-134-93-227t-227-93q-134 0-227 93t-93 227q0 134 93 227t227 93Zm0-320Z"/></symbol>
	<symbol id="error" xmlns="http://www.w3.org/2000/svg" viewBox="0 -960 960 960" fill="currentColor"><path d="M480-280q17 0 28.5-11.5T520-320q0-17-11.5-28.5T480-360q-17 0-28.5 11.5T440-320q0 17 11.5 28.5T480-280Zm-40-160h80v-240h-80v240Zm40 360q-83 0-156-31.5T197-197q-54-54-85.5-127T80-480q0-83 31.5-156T197-763q54-54 127-85.5T480-880q83 0 156 31.5T763-763q54 54 85.5 127T880-480q0 83-31.5 156T763-197q-54 54-127 85.5T480-80Zm0-80q134 0 227-93t93-227q0-134-93-227t-227-93q-134 0-227 93t-93 227q0 134 93 227t227 93Zm0-320Z"/></symbol>

	<symbol id="flower" xmlns="http://www.w3.org/2000/svg" width="82" height="86"><path fill="#FFF" d="m25.346 38.335 31.327 4.58-11.127 13.91c-2.225-.679-4.28-1.527-6.334-2.545-4.28 6.276-5.992 12.552-6.163 18.49 1.712-3.054 4.109-5.26 7.361-6.616 4.28-1.696 9.245-1.188 13.524.678-1.54 4.75-4.622 8.482-9.073 10.347-3.766 1.527-8.046 1.357-11.983-.17.342 3.393.856 6.277 1.712 8.991H21.066c-1.198-5.258-1.712-11.195-1.027-17.302-5.307.34-10.271-1.018-14.038-4.41C1.893 60.556-.16 55.298.01 49.361c5.82-.848 11.47.509 15.75 4.24 2.738 2.375 4.621 5.598 5.477 9.16 1.37-5.767 3.938-11.534 8.046-17.132-1.37-1.866-2.568-3.901-3.424-6.106-.17-.34-.342-.848-.513-1.188zM67.627 33 74 49.385c-2.614 2.872-5.719 5.068-9.477 6.588C59.458 58 54.065 58.507 49 57.493L67.627 33zm-4.449-14.341 17.804 2.544c2.568 9.5.171 19.337-5.992 26.462L63.178 18.659zm-32.525-8.481 11.812 29.005L24.66 36.81c-2.739-9.5-.171-19.507 5.992-26.631zM41.95 2.036C47.258 0 52.907-.51 58.214.509L38.699 25.105 32.022 8.65c2.74-2.884 5.992-5.089 9.93-6.615zM60.268.848C68.828 3.223 76.36 9.33 79.955 18.15c.171.34.342.848.514 1.187l-31.328-4.58z"/><style></style></symbol>
	<symbol id="user" xmlns="http://www.w3.org/2000/svg"><path fill="currentColor" d="M12 13.5A6.751 6.751 0 0 0 12 0a6.751 6.751 0 0 0 0 13.5Zm0-1.5a5.253 5.253 0 0 1-5.25-5.25A5.253 5.253 0 0 1 12 1.5a5.253 5.253 0 0 1 5.25 5.25A5.253 5.253 0 0 1 12 12Zm10.5 12c.83 0 1.5-.67 1.5-1.5V21a6 6 0 0 0-6-6c-4.331 0-3.328.75-6 .75-2.663 0-1.673-.75-6-.75a6 6 0 0 0-6 6v1.5c0 .83.67 1.5 1.5 1.5Zm0-1.5h-21V21c0-2.48 2.02-4.5 4.5-4.5 3.984 0 3.155.75 6 .75 2.855 0 2.01-.75 6-.75 2.48 0 4.5 2.02 4.5 4.5z"/></symbol>
	<symbol id="heart" xmlns="http://www.w3.org/2000/svg"><path fill="currentColor" d="M11.996 22.5c.384 0 .769-.15 1.06-.455l9.07-9.365c2.644-2.72 2.489-7.229-.455-9.741-2.555-2.175-6.375-1.814-8.747.633l-.923.956-.924-.952C9.165 1.598 5.307.408 2.33 2.939c-2.943 2.512-3.098 7.022-.464 9.74l9.07 9.366c.291.3.676.455 1.06.455zm.023-1.495-9.075-9.366c-1.8-1.856-2.175-5.395.361-7.556 2.57-2.194 5.588-.605 6.694.539l2.002 2.067 2.001-2.067c1.088-1.125 4.135-2.719 6.694-.54 2.531 2.157 2.161 5.696.361 7.557z"/></symbol>
	<symbol id="cart" xmlns="http://www.w3.org/2000/svg"><path fill="currentColor" d="M19.333 22.667a2.667 2.667 0 0 0 1.859-4.578 1 1 0 0 0-.97-.755H7.886l-.5-2.667h13.807a1 1 0 0 0 .98-.796l1.805-8.667A1 1 0 0 0 23 4H5.387L5.04 2.15a1.001 1.001 0 0 0-.983-.816H.499a.5.5 0 0 0-.5.5v.333a.5.5 0 0 0 .501.5h3.28l2.913 15.54A2.667 2.667 0 1 0 11.333 20v-.003c0-.394-.16-.99-.357-1.331h6.048c-.197.34-.357.937-.357 1.33v.004a2.667 2.667 0 0 0 2.666 2.666zm1.59-9.333H7.136l-1.5-8H22.59zm-12.257 8A1.335 1.335 0 0 1 7.333 20c0-.735.598-1.333 1.333-1.333S10 19.265 10 20c0 .736-.598 1.334-1.333 1.334zm10.667 0A1.335 1.335 0 0 1 18 20c0-.735.598-1.333 1.333-1.333s1.333.598 1.333 1.333c0 .736-.598 1.334-1.333 1.334z"/></symbol>
	<symbol id="search" xmlns="http://www.w3.org/2000/svg" viewBox="0 0 24 24"><path fill="currentColor" d="M9.5 4a6.5 6.5 0 0 1 6.5 6.5c0 1.62-.59 3.1-1.57 4.23l5.65 5.65l-.71.71l-5.65-5.65A6.47 6.47 0 0 1 9.5 17A6.5 6.5 0 0 1 3 10.5A6.5 6.5 0 0 1 9.5 4m0 1A5.5 5.5 0 0 0 4 10.5A5.5 5.5 0 0 0 9.5 16a5.5 5.5 0 0 0 5.5-5.5A5.5 5.5 0 0 0 9.5 5"/></symbol>
	<symbol id="microphone" xmlns="http://www.w3.org/2000/svg" viewBox="0 0 352 512"><path fill="#F68E1E" d="M176 352c53.02 0 96-42.98 96-96V96c0-53.02-42.98-96-96-96S80 42.98 80 96v160c0 53.02 42.98 96 96 96zm160-160h-16c-8.84 0-16 7.16-16 16v48c0 74.8-64.49 134.82-140.79 127.38C96.71 376.89 48 317.11 48 250.3V208c0-8.84-7.16-16-16-16H16c-8.84 0-16 7.16-16 16v40.16c0 89.64 63.97 169.55 152 181.69V464H96c-8.84 0-16 7.16-16 16v16c0 8.84 7.16 16 16 16h160c8.84 0 16-7.16 16-16v-16c0-8.84-7.16-16-16-16h-56v-33.77C285.71 418.47 352 344.9 352 256v-48c0-8.84-7.16-16-16-16z"/></symbol>
	<symbol id="phone" xmlns="http://www.w3.org/2000/svg" viewBox="0 0 512 512"><path d="M415.9 335.5c-14.6-15-56.1-43.1-83.3-43.1-6.3 0-11.8 1.4-16.3 4.3-13.3 8.5-23.9 15.1-29 15.1-2.8 0-5.8-2.5-12.4-8.2l-1.1-1c-18.3-15.9-22.2-20-29.3-27.4l-1.8-1.9c-1.3-1.3-2.4-2.5-3.5-3.6-6.2-6.4-10.7-11-26.6-29l-.7-.8c-7.6-8.6-12.6-14.2-12.9-18.3-.3-4 3.2-10.5 12.1-22.6 10.8-14.6 11.2-32.6 1.3-53.5-7.9-16.5-20.8-32.3-32.2-46.2l-1-1.2c-9.8-12-21.2-18-33.9-18-14.1 0-25.8 7.6-32 11.6-.5.3-1 .7-1.5 1-13.9 8.8-24 20.9-27.8 33.2-5.7 18.5-9.5 42.5 17.8 92.4 23.6 43.2 45 72.2 79 107.1 32 32.8 46.2 43.4 78 66.4 35.4 25.6 69.4 40.3 93.2 40.3 22.1 0 39.5 0 64.3-29.9 26-31.4 15.2-50.6-.4-66.7z" fill="currentColor"/></symbol>
	<symbol id="menu" xmlns="http://www.w3.org/2000/svg" viewBox="0 0 384 384"><path fill="currentColor" d="M0 277.333h384V320H0zm0-106.666h384v42.667H0zM0 64h384v42.667H0z"/></symbol>
	<symbol id="chevron-right-bold" viewBox="0 0 16 16" xmlns="http://www.w3.org/2000/svg"><path d="M12.195 7.263a1 1 0 0 1 0 1.474L4.265 16 2 13.926 8.47 8 2 2.074 4.265 0l7.93 7.263Z" fill="currentColor"/></symbol>
	<symbol id="card" xmlns="http://www.w3.org/2000/svg" viewBox="0 0 576 512"><path fill="#33343b" d="M528 32H48C21.5 32 0 53.5 0 80v352c0 26.5 21.5 48 48 48h480c26.5 0 48-21.5 48-48V80c0-26.5-21.5-48-48-48zM48 64h480c8.8 0 16 7.2 16 16v48H32V80c0-8.8 7.2-16 16-16zm480 384H48c-8.8 0-16-7.2-16-16V224h512v208c0 8.8-7.2 16-16 16zm-336-84v8c0 6.6-5.4 12-12 12h-72c-6.6 0-12-5.4-12-12v-8c0-6.6 5.4-12 12-12h72c6.6 0 12 5.4 12 12zm192 0v8c0 6.6-5.4 12-12 12H236c-6.6 0-12-5.4-12-12v-8c0-6.6 5.4-12 12-12h136c6.6 0 12 5.4 12 12z"/></symbol>
	<symbol id="barcode" xmlns="http://www.w3.org/2000/svg" viewBox="0 0 512 512"><path fill="#33343b" d="M0 448V64h18v384H0zm26.857-.273V64H36v383.727h-9.143zm27.143 0V64h8.857v383.727H54zm44.857 0V64h8.857v383.727h-8.857zm36 0V64h17.714v383.727h-17.714zm44.857 0V64h8.857v383.727h-8.857zm18 0V64h8.857v383.727h-8.857zm18 0V64h8.857v383.727h-8.857zm35.715 0V64h18v383.727h-18zm44.857 0V64h18v383.727h-18zm35.999 0V64h18.001v383.727h-18.001zm36.001 0V64h18.001v383.727h-18.001zm26.857 0V64h18v383.727h-18zm45.143 0V64h26.857v383.727h-26.857zm35.714 0V64h9.143v383.727H476zm18 .273V64h18v384h-18z"/></symbol>
	<symbol id="round-check" xmlns="http://www.w3.org/2000/svg" viewBox="0 0 24 24"><path d="M12 0C5.4 0 0 5.4 0 12s5.4 12 12 12 12-5.4 12-12S18.6 0 12 0zm-1.2 17.3-4.5-4.4L8.2 11l2.6 2.5 5.6-5.8 1.9 1.9-7.5 7.7z" fill="currentColor"/></symbol>
	<symbol id="medal" xmlns="http://www.w3.org/2000/svg" viewBox="0 0 13 14"><path d="M2.9 5.3A5.255 5.255 0 0 1 5.68 3.945L3.926 1.02a.81.81 0 0 0-.697-.395H.407a.406.406 0 0 0-.333.64L2.9 5.3Zm7.2 0 2.826-4.036a.406.406 0 0 0-.333-.639H9.77c-.286 0-.55.15-.697.395L7.32 3.945A5.256 5.256 0 0 1 10.1 5.3Zm-3.6 8.325a4.469 4.469 0 1 0 0-8.938 4.469 4.469 0 0 0 0 8.938Zm-1.614-2.68.228-1.326-.963-.939a.292.292 0 0 1 .161-.497l1.332-.194.594-1.207A.287.287 0 0 1 6.5 6.62a.29.29 0 0 1 .263.162l.595 1.207 1.33.194a.292.292 0 0 1 .162.497l-.963.939.228 1.326c.04.237-.21.419-.423.307L6.5 10.626l-1.19.626a.291.291 0 0 1-.424-.307Z" fill="currentColor" fill-rule="nonzero"/></symbol>
	<symbol id="delivery" xmlns="http://www.w3.org/2000/svg" viewBox="0 0 640 512"><path fill="currentColor" d="M624 352h-16V243.9c0-12.7-5.1-24.9-14.1-33.9L494 110.1c-9-9-21.2-14.1-33.9-14.1H416V48c0-26.5-21.5-48-48-48H48C21.5 0 0 21.5 0 48v320c0 26.5 21.5 48 48 48h16c0 53 43 96 96 96s96-43 96-96h128c0 53 43 96 96 96s96-43 96-96h48c8.8 0 16-7.2 16-16v-32c0-8.8-7.2-16-16-16zM160 464c-26.5 0-48-21.5-48-48s21.5-48 48-48 48 21.5 48 48-21.5 48-48 48zm320 0c-26.5 0-48-21.5-48-48s21.5-48 48-48 48 21.5 48 48-21.5 48-48 48zm80-208H416V144h44.1l99.9 99.9V256z"/></symbol>
	<symbol id="box" xmlns="http://www.w3.org/2000/svg" viewBox="0 0 608 512"><path fill="currentColor" d="M606.4 143.8 557.5 41c-2.7-5.6-8.1-9-13.9-9C543 32 304 64 304 64S65 32 64.4 32c-5.8 0-11.2 3.5-13.9 9L1.6 143.8c-4.4 9.2.3 20.2 9.6 23l49.5 14.9V393c0 14.7 9.5 27.5 23 31l205.4 54.1c13 3.4 23.7 1.5 29.5 0L524.2 424c13.5-3.6 23-16.4 23-31V181.7l49.5-14.9c9.4-2.8 14-13.8 9.7-23zM73 65.3l180.9 24.3-57.1 99.8-159.9-48.1 36.1-76zm18.2 125.6C208.3 226.1 200.5 224 203.6 224c5.4 0 10.5-2.9 13.3-7.9l71.9-125.5V445L91.2 393V190.9zM516.8 393l-197.6 52V90.5L391.1 216c2.9 5 8 7.9 13.3 7.9 3.1 0-5 2.1 112.4-33.1V393zM411.3 189.3l-57.1-99.8L535 65.3l36.1 76-159.8 48z"/></symbol>
	<symbol id="guarantee" xmlns="http://www.w3.org/2000/svg" viewBox="0 0 512 512"><path fill="currentColor" d="M497.9 97.98 414.02 14.1c-9-9-21.19-14.1-33.89-14.1H176c-26.5.1-47.99 21.6-47.99 48.09V165.7c-5.97 0-11.94-1.68-24.13-5.03-1.7-.46-3.36-.66-4.96-.66-5.56 0-10.43 2.5-13.66 5.79-17.95 18.26-17.07 17.77-41.7 24.5-6.7 1.81-11.97 7.21-13.78 14.07-6.47 24.67-6.09 24.16-24.02 42.32-4.95 5.04-6.9 12.48-5.08 19.43 6.56 24.38 6.52 24.39 0 48.76-1.82 6.95.12 14.4 5.08 19.45 18 18.15 17.58 17.79 24.02 42.29 1.8 6.88 7.08 12.27 13.78 14.1 1.8.48 2.92.8 4.46 1.21V496c0 5.55 2.87 10.69 7.59 13.61 4.66 2.91 10.59 3.16 15.56.7l56.84-28.42 56.84 28.42c2.25 1.12 4.72 1.69 7.16 1.69h272c26.49 0 47.99-21.5 47.99-47.99V131.97c0-12.69-5.1-24.99-14.1-33.99zM384.03 32.59c2.8.7 5.3 2.1 7.4 4.2l83.88 83.88c2.1 2.1 3.5 4.6 4.2 7.4h-95.48V32.59zM33.28 316.68c5.7-22.3 5.7-30.23.01-52.39 15.65-16.2 19.56-22.98 25.63-45.06 21.57-6.13 28.06-9.92 43.88-25.69 9.8 2.62 16.82 4.15 25.21 4.15 8.28 0 15.25-1.49 25.19-4.16 15.56 15.51 22.49 19.58 43.86 25.68 5.98 21.95 9.71 28.63 25.65 45.07-5.77 22.45-5.76 30 0 52.4-15.62 16.17-19.55 22.96-25.61 44.96-14.63 3.92-24 7.36-37.25 19.36-9.94-4.53-20.78-6.89-31.85-6.89s-21.9 2.36-31.85 6.9c-13.18-11.88-22.56-15.34-37.23-19.33-5.97-21.89-9.72-28.57-25.64-45zm101.89 133.01c-4.5-2.25-9.81-2.25-14.31 0l-40.84 20.42V409.9c.12.12.19.17.31.29 3.75 3.82 8.68 5.79 13.64 5.79 3.5 0 7.02-.98 10.16-2.97 7.25-4.59 15.56-6.88 23.87-6.88s16.62 2.29 23.87 6.86c3.16 2.02 6.68 3.01 10.17 3.01 4.96 0 9.87-1.99 13.63-5.79.13-.13.21-.18.34-.32v60.22l-40.84-20.42zm344.84 14.32c0 8.8-7.2 16-16 16h-256V391.9c1.54-.4 2.65-.71 4.44-1.19 6.7-1.82 11.97-7.22 13.77-14.08 6.47-24.68 6.09-24.16 24.03-42.32 4.95-5.04 6.9-12.49 5.07-19.44-6.53-24.33-6.55-24.34 0-48.76 1.83-6.95-.12-14.4-5.07-19.45-18-18.15-17.58-17.79-24.03-42.29-1.8-6.87-7.07-12.27-13.75-14.09-24.23-6.57-23.89-6.23-41.72-24.52-2.94-2.97-6.78-4.52-10.74-5.16V48.09c0-8.8 7.2-16.09 16-16.09h176.03v104.07c0 13.3 10.7 23.93 24 23.93h103.98v304.01z"/></symbol>
	<symbol id="home" viewBox="0 0 16 16" xmlns="http://www.w3.org/2000/svg"><path d="m15.475 6.686-1.253-1.025V2.89c0-.122-.1-.222-.222-.222h-.889c-.122 0-.222.1-.222.222v1.68L8.706 1.142a1.11 1.11 0 0 0-1.409 0L.525 6.686A.224.224 0 0 0 .495 7l.563.689a.224.224 0 0 0 .314.03l.409-.333v5.503c0 .244.2.444.444.444h4.667c.122 0 .222-.1.222-.222V9.556h1.778v3.555c0 .122.1.222.222.222h4.667c.244 0 .444-.2.444-.444V7.383l.408.334a.224.224 0 0 0 .314-.03l.564-.69a.227.227 0 0 0-.036-.31ZM12.889 12h-2.667V8.444c0-.122-.1-.222-.222-.222H6c-.122 0-.222.1-.222.222V12H3.11V6.292l4.747-3.89c.08-.066.2-.066.28 0l4.748 3.89V12Z" fill="currentColor"/></symbol>
	<symbol id="trash" xmlns="http://www.w3.org/2000/svg"><g fill="currentColor"><path d="M7 7H5v6h2V7ZM11 7H9v6h2V7Z"/><path d="M12 1c0-.6-.4-1-1-1H5c-.6 0-1 .4-1 1v2H0v2h1v10c0 .6.4 1 1 1h12c.6 0 1-.4 1-1V5h1V3h-4V1ZM6 2h4v1H6V2Zm7 3v9H3V5h10Z"/></g></symbol>
	<symbol id="x" xmlns="http://www.w3.org/2000/svg" viewBox="0 0 24 24"><path fill="currentColor" d="m12 13.4l-4.9 4.9q-.275.275-.7.275t-.7-.275t-.275-.7t.275-.7l4.9-4.9l-4.9-4.9q-.275-.275-.275-.7t.275-.7t.7-.275t.7.275l4.9 4.9l4.9-4.9q.275-.275.7-.275t.7.275t.275.7t-.275.7L13.4 12l4.9 4.9q.275.275.275.7t-.275.7t-.7.275t-.7-.275z"/></symbol>
	<symbol id="menu-header" viewBox="0 0 16 16" xmlns="http://www.w3.org/2000/svg"><g fill="currentColor"><path d="M15 7H1c-.6 0-1 .4-1 1s.4 1 1 1h14c.6 0 1-.4 1-1s-.4-1-1-1zM15 1H1c-.6 0-1 .4-1 1s.4 1 1 1h14c.6 0 1-.4 1-1s-.4-1-1-1zM15 13H1c-.6 0-1 .4-1 1s.4 1 1 1h14c.6 0 1-.4 1-1s-.4-1-1-1z"/></g></symbol>
	<symbol id="check" viewBox="0 0 24 24"><path fill="currentColor" d="m9 20.42l-6.21-6.21l2.83-2.83L9 14.77l9.88-9.89l2.83 2.83z"></path></symbol>
	<symbol id="plus" viewBox="0 0 24 24"><path fill="currentColor" d="M12 21q-.425 0-.712-.288T11 20v-7H4q-.425 0-.712-.288T3 12t.288-.712T4 11h7V4q0-.425.288-.712T12 3t.713.288T13 4v7h7q.425 0 .713.288T21 12t-.288.713T20 13h-7v7q0 .425-.288.713T12 21"></path></symbol>
	<symbol id="plp-list" viewBox="0 0 16 16" xmlns="http://www.w3.org/2000/svg"><path fill="currentColor" d="M10.286 0H1.714C.686 0 0 .686 0 1.714v8.572C0 11.314.686 12 1.714 12h8.572C11.314 12 12 11.314 12 10.286V1.714C12 .686 11.314 0 10.286 0Z"/><rect y="14" width="12" height="2" rx="1" fill="currentColor"/></symbol>
	<symbol id="plp-grid" viewBox="0 0 16 16" xmlns="http://www.w3.org/2000/svg"><path fill="currentColor" d="M6 0H1C.4 0 0 .4 0 1v5c0 .6.4 1 1 1h5c.6 0 1-.4 1-1V1c0-.6-.4-1-1-1ZM15 0h-5c-.6 0-1 .4-1 1v5c0 .6.4 1 1 1h5c.6 0 1-.4 1-1V1c0-.6-.4-1-1-1ZM6 9H1c-.6 0-1 .4-1 1v5c0 .6.4 1 1 1h5c.6 0 1-.4 1-1v-5c0-.6-.4-1-1-1ZM15 9h-5c-.6 0-1 .4-1 1v5c0 .6.4 1 1 1h5c.6 0 1-.4 1-1v-5c0-.6-.4-1-1-1Z"/></symbol>
	<symbol id="settings" xmlns="http://www.w3.org/2000/svg" viewBox="0 0 16 16"><g stroke="#4F4F4F" stroke-miterlimit="10" stroke-linecap="round" stroke-linejoin="round"><path fill="transparent" d="M4 5V1M4 16v-2M13 12v4M13 1v2M4 14a3 3 0 1 0 0-6 3 3 0 0 0 0 6ZM13 9a3 3 0 1 0 0-6 3 3 0 0 0 0 6Z"/></g></symbol>
	<symbol id="close" viewBox="0 0 24 24"><path fill="currentColor" d="m12 13.4l-4.9 4.9q-.275.275-.7.275t-.7-.275t-.275-.7t.275-.7l4.9-4.9l-4.9-4.9q-.275-.275-.275-.7t.275-.7t.7-.275t.7.275l4.9 4.9l4.9-4.9q.275-.275.7-.275t.7.275t.275.7t-.275.7L13.4 12l4.9 4.9q.275.275.275.7t-.275.7t-.7.275t-.7-.275z"></path></symbol>
</svg>
